#!OML:ASF E:\Steps\Project 1\Capture day 1\Session 2\Subject.ASF
:FULLY-SPECIFIED
:DEGREES
629
root 20.9975 16.1751 -12.649 -155.858 -11.3506 180.908
lowerback -24.0332 -0.712386 -7.90398
upperback 1.36964 1.46403 -2.45811
thorax 15.0618 0.0443119 2.18285
lowerneck -9.6943 -0.746762 16.0375
upperneck 34.2711 -1.98311 -22.35
head 12.3392 -2.89118 -12.74
rclavicle 3.69739e-014 -1.27222e-014
rhumerus -27.7121 -4.25188 -87.7663
rradius 45.9139
rwrist -10.8367
rhand -3.94315 -56.7213
rfingers 7.12502
rthumb 21.8085 -445.513
lclavicle 3.69739e-014 -1.27222e-014
lhumerus -31.0949 4.77919 77.6045
lradius 27.1713
lwrist 0.501495
lhand -22.8594 -13.1882
lfingers 7.12502
lthumb 3.57887 16.7615
rfemur -44.7342 13.1478 12.2867
rtibia 36.3998
rfoot -21.8583 -2.77555
rtoes -38.1279
lfemur -31.3508 -3.22108 -23.4735
ltibia 7.96706
lfoot -2.49587 9.63218
ltoes -30.1968
630
root 20.9981 16.1809 -12.6934 -155.719 -12.0111 180.921
lowerback -23.8556 -0.768469 -7.84848
upperback 1.22437 1.33534 -2.43661
thorax 14.7955 0.000831989 2.13151
lowerneck -9.72254 -0.706275 16.0797
upperneck 34.5382 -1.96128 -22.342
head 12.4667 -2.87822 -12.7976
rclavicle -3.97569e-016 -2.22639e-014
rhumerus -28.3136 -4.72019 -87.59
rradius 45.6514
rwrist -10.4701
rhand -3.71805 -56.8021
rfingers 7.12502
rthumb 22.0247 -445.568
lclavicle -3.97569e-016 -2.22639e-014
lhumerus -31.296 4.66978 77.4127
lradius 27.2491
lwrist 0.649376
lhand -23.0492 -13.2364
lfingers 7.12502
lthumb 3.39555 16.7163
rfemur -44.7581 14.7051 11.0265
rtibia 33.8821
rfoot -21.3582 -1.18781
rtoes -34.7848
lfemur -31.4428 -3.32251 -23.4284
ltibia 8.16252
lfoot -2.81665 9.09612
ltoes -29.6315
631
root 21.0022 16.1866 -12.7378 -155.578 -12.5406 180.851
lowerback -23.7858 -0.808553 -7.92439
upperback 1.18319 1.29294 -2.45841
thorax 14.7089 -0.020417 2.13439
lowerneck -9.91212 -0.447088 16.3891
upperneck 34.559 -1.62838 -22.2651
head 12.6123 -2.66101 -12.8316
rclavicle -1.55052e-014 0
rhumerus -28.5531 -5.16225 -87.4362
rradius 45.173
rwrist -10.3941
rhand -3.75953 -56.7672
rfingers 7.12502
rthumb 21.9849 -445.538
lclavicle -1.55052e-014 0
lhumerus -31.2559 4.76051 77.1462
lradius 27.2456
lwrist 0.54743
lhand -23.0231 -12.7318
lfingers 7.12502
lthumb 3.4208 17.2205
rfemur -44.7884 15.3136 10.6015
rtibia 33.0301
rfoot -21.9037 -2.71509
rtoes -45.1601
lfemur -31.4481 -3.39346 -23.4405
ltibia 8.22625
lfoot -2.98568 8.60101
ltoes -29.1011
632
root 21.0077 16.1936 -12.784 -155.524 -12.9668 180.841
lowerback -23.8841 -0.820131 -7.99671
upperback 1.32902 1.32857 -2.44885
thorax 14.9377 -0.0179856 2.19774
lowerneck -10.5103 -0.422103 16.1104
upperneck 35.0583 -1.6535 -22.1493
head 12.9695 -2.69945 -12.8624
rclavicle -2.5842e-014 -7.31528e-014
rhumerus -28.4896 -5.62317 -87.2493
rradius 44.7243
rwrist -10.2977
rhand -4.31203 -56.4558
rfingers 7.12502
rthumb 21.4543 -445.288
lclavicle -2.5842e-014 -7.31528e-014
lhumerus -30.9476 4.8879 76.9234
lradius 27.2213
lwrist 0.522487
lhand -22.9676 -12.3929
lfingers 7.12502
lthumb 3.4744 17.5586
rfemur -44.9041 16.7594 9.46749
rtibia 31.0773
rfoot -21.6235 -1.19995
rtoes -41.3289
lfemur -31.3495 -3.38229 -23.3665
ltibia 8.23945
lfoot -3.11855 8.16495
ltoes -29.1414
633
root 21.0112 16.2017 -12.8325 -155.594 -13.431 180.797
lowerback -23.9337 -0.848441 -8.09198
upperback 1.5579 1.3517 -2.39886
thorax 15.2401 -0.0268631 2.31595
lowerneck -11.2295 -0.183314 15.99
upperneck 35.4302 -1.34844 -22.1334
head 13.3967 -2.5721 -12.9505
rclavicle -8.74653e-015 2.54444e-014
rhumerus -28.367 -6.00311 -86.9757
rradius 44.2357
rwrist -10.0262
rhand -4.74082 -56.1951
rfingers 7.12502
rthumb 21.0424 -445.073
lclavicle -8.74653e-015 2.54444e-014
lhumerus -30.4848 5.14274 76.8192
lradius 27.0505
lwrist 0.406851
lhand -23.0603 -12.5148
lfingers 7.12502
lthumb 3.38485 17.4381
rfemur -44.7679 18.0503 8.47457
rtibia 29.1926
rfoot -21.1696 -0.0539258
rtoes -36.754
lfemur -31.0976 -3.35165 -23.3743
ltibia 8.23653
lfoot -3.20433 7.68573
ltoes -29.4476
634
root 21.0107 16.207 -12.8809 -155.645 -13.9581 180.746
lowerback -23.8831 -0.908292 -8.1133
upperback 1.63638 1.28238 -2.37567
thorax 15.3126 -0.0621231 2.32905
lowerneck -11.086 -0.118035 16.1256
upperneck 35.3965 -1.21426 -22.3448
head 13.3808 -2.51707 -13.0598
rclavicle -4.77083e-015 -2.70347e-014
rhumerus -28.4908 -6.29966 -86.7946
rradius 43.6856
rwrist -9.74485
rhand -4.96243 -56.0833
rfingers 7.12502
rthumb 20.8295 -444.985
lclavicle -4.77083e-015 -2.70347e-014
lhumerus -30.4535 5.39356 76.5931
lradius 27.0112
lwrist 0.268794
lhand -23.1923 -12.5778
lfingers 7.12502
lthumb 3.25739 17.3771
rfemur -44.5432 19.1654 7.60065
rtibia 27.4987
rfoot -21.1601 0.184711
rtoes -38.932
lfemur -30.8698 -3.36264 -23.422
ltibia 8.25621
lfoot -3.24036 7.1514
ltoes -30.2425
635
root 21.0099 16.2102 -12.9297 -155.608 -14.4747 180.733
lowerback -23.8542 -0.972993 -8.08002
upperback 1.61011 1.18086 -2.37607
thorax 15.2745 -0.102773 2.27329
lowerneck -10.7006 -0.199242 16.2092
upperneck 35.3628 -1.28574 -22.553
head 13.2472 -2.56656 -13.1453
rclavicle 1.23246e-014 4.77083e-015
rhumerus -28.808 -6.63559 -86.6932
rradius 43.3052
rwrist -9.4083
rhand -4.81168 -56.2462
rfingers 7.12502
rthumb 20.9743 -445.132
lclavicle 1.23246e-014 4.77083e-015
lhumerus -30.7931 5.29232 76.3063
lradius 27.3008
lwrist 0.473794
lhand -23.2262 -12.4722
lfingers 7.12502
lthumb 3.22461 17.4831
rfemur -44.3801 20.4119 6.70575
rtibia 25.9367
rfoot -20.6128 0.719029
rtoes -37.2168
lfemur -30.7388 -3.43452 -23.3834
ltibia 8.28532
lfoot -3.37997 6.67094
ltoes -30.1051
636
root 21.0118 16.2151 -12.9819 -155.537 -14.9706 180.695
lowerback -23.9155 -1.01497 -8.12867
upperback 1.63004 1.1472 -2.36411
thorax 15.3373 -0.124613 2.30236
lowerneck -11.417 0.245716 16.3605
upperneck 35.8074 -0.729594 -22.5919
head 13.7921 -2.2961 -13.3311
rclavicle -2.78299e-014 -7.95139e-014
rhumerus -28.9493 -6.96604 -86.5145
rradius 42.8118
rwrist -9.05834
rhand -4.16542 -56.5848
rfingers 7.12502
rthumb 21.5951 -445.401
lclavicle -2.78299e-014 -7.95139e-014
lhumerus -30.8243 5.08659 76.1916
lradius 27.3863
lwrist 0.880309
lhand -23.3079 -12.3342
lfingers 7.12502
lthumb 3.14574 17.6224
rfemur -44.2728 21.6187 5.78857
rtibia 24.4795
rfoot -20.2692 1.16402
rtoes -35.4924
lfemur -30.6184 -3.56767 -23.3106
ltibia 8.3103
lfoot -3.63612 6.24175
ltoes -28.3273
637
root 21.0169 16.2203 -13.0321 -155.486 -15.4504 180.682
lowerback -23.9404 -0.987658 -8.15299
upperback 1.61296 1.19398 -2.38541
thorax 15.3264 -0.10441 2.30859
lowerneck -11.6516 0.395082 16.426
upperneck 36.1609 -0.559072 -22.6532
head 14.0691 -2.21634 -13.4675
rclavicle 5.1684e-015 6.36111e-014
rhumerus -29.1069 -7.42609 -86.3416
rradius 42.2072
rwrist -8.86614
rhand -3.97982 -56.6147
rfingers 7.12502
rthumb 21.7733 -445.41
lclavicle 5.1684e-015 6.36111e-014
lhumerus -30.6888 4.92428 76.076
lradius 27.145
lwrist 1.30851
lhand -23.5748 -12.3477
lfingers 7.12502
lthumb 2.88801 17.6125
rfemur -44.3557 22.0751 5.32854
rtibia 23.6471
rfoot -20.2329 1.98145
rtoes -35.187
lfemur -30.5149 -3.66352 -23.1875
ltibia 8.36762
lfoot -3.82109 5.81735
ltoes -27.2812
638
root 21.024 16.2266 -13.0749 -155.488 -15.9032 180.609
lowerback -23.8023 -1.00478 -8.24272
upperback 1.56681 1.18051 -2.43171
thorax 15.1912 -0.111015 2.30101
lowerneck -11.7037 0.535175 16.5062
upperneck 36.4686 -0.389303 -22.7639
head 14.2836 -2.14422 -13.6117
rclavicle 5.1684e-015 1.59028e-014
rhumerus -29.3373 -7.88531 -86.2693
rradius 41.648
rwrist -8.63768
rhand -4.1013 -56.5277
rfingers 7.12502
rthumb 21.6567 -445.336
lclavicle 5.1684e-015 1.59028e-014
lhumerus -30.7807 4.79593 75.8541
lradius 27.0942
lwrist 1.72769
lhand -23.7914 -12.4402
lfingers 7.12502
lthumb 2.67886 17.5227
rfemur -44.4253 21.8524 5.30243
rtibia 23.325
rfoot -20.1051 3.25386
rtoes -34.0707
lfemur -30.4045 -3.72387 -23.1442
ltibia 8.46521
lfoot -3.86495 5.39734
ltoes -27.8734
639
root 21.0285 16.2313 -13.1175 -155.424 -16.4844 180.562
lowerback -23.7462 -1.08768 -8.26825
upperback 1.54938 1.06956 -2.43352
thorax 15.1486 -0.16073 2.27357
lowerneck -11.4989 0.522724 16.4622
upperneck 36.574 -0.403056 -22.7318
head 14.28 -2.15196 -13.5929
rclavicle 4.33351e-014 3.81667e-014
rhumerus -29.343 -8.13361 -86.213
rradius 40.8093
rwrist -8.27366
rhand -3.8404 -56.7672
rfingers 7.12502
rthumb 21.9072 -445.547
lclavicle 4.33351e-014 3.81667e-014
lhumerus -30.9036 4.8977 75.6092
lradius 27.243
lwrist 1.78534
lhand -23.7945 -12.2147
lfingers 7.12502
lthumb 2.67584 17.7482
rfemur -44.2092 21.8161 5.28018
rtibia 22.6254
rfoot -19.4775 3.81825
rtoes -33.7888
lfemur -30.4395 -3.87969 -23.0711
ltibia 8.67719
lfoot -3.94938 4.88218
ltoes -28.4047
640
root 21.0316 16.2335 -13.1682 -155.306 -17.1975 180.631
lowerback -23.8269 -1.11997 -8.11604
upperback 1.53308 0.990482 -2.41854
thorax 15.1849 -0.184358 2.17663
lowerneck -11.9812 0.872635 16.6885
upperneck 36.8565 0.0305363 -22.75
head 14.6814 -1.91487 -13.7411
rclavicle 4.13472e-014 9.70069e-014
rhumerus -29.2266 -8.33258 -86.1229
rradius 39.6961
rwrist -7.96661
rhand -3.99478 -56.7381
rfingers 7.12502
rthumb 21.759 -445.535
lclavicle 4.13472e-014 9.70069e-014
lhumerus -30.8819 5.06777 75.3908
lradius 27.2609
lwrist 1.60857
lhand -23.7473 -11.8396
lfingers 7.12502
lthumb 2.72138 18.1228
rfemur -43.8415 21.8901 5.39075
rtibia 21.7252
rfoot -19.0039 3.53575
rtoes -37.9326
lfemur -30.5591 -4.04154 -22.863
ltibia 8.96477
lfoot -4.17665 4.25027
ltoes -27.5702
